<svg xmlns="http://www.w3.org/2000/svg" viewBox="0 0 600 360" role="img" aria-labelledby="title desc">
  <title id="title">Traffic light credit risk gauge</title>
  <desc id="desc">A semicircular green, yellow, orange and red credit risk gauge with a central risk label.</desc>
  <defs>
    <linearGradient id="green" x1="0" x2="1"><stop offset="0" stop-color="#32c900"/><stop offset="1" stop-color="#b8d000"/></linearGradient>
    <linearGradient id="yellow" x1="0" x2="1"><stop offset="0" stop-color="#d9d900"/><stop offset="1" stop-color="#ffd400"/></linearGradient>
    <linearGradient id="orange" x1="0" x2="1"><stop offset="0" stop-color="#ffc400"/><stop offset="1" stop-color="#f47b00"/></linearGradient>
    <linearGradient id="red" x1="0" x2="1"><stop offset="0" stop-color="#ef2100"/><stop offset="1" stop-color="#c90012"/></linearGradient>
  </defs>
  <rect width="600" height="360" fill="#f8fafb"/>
  <path d="M42 300 A258 258 0 0 1 558 300" fill="none" stroke="#e7ebed" stroke-width="72"/>
  <path d="M42 300 A258 258 0 0 1 168 83" fill="none" stroke="url(#green)" stroke-width="62"/>
  <path d="M168 83 A258 258 0 0 1 300 42" fill="none" stroke="url(#yellow)" stroke-width="62"/>
  <path d="M300 42 A258 258 0 0 1 432 83" fill="none" stroke="url(#orange)" stroke-width="62"/>
  <path d="M432 83 A258 258 0 0 1 558 300" fill="none" stroke="url(#red)" stroke-width="62"/>
  <path d="M168 83 L190 119 M300 42 L300 86 M432 83 L410 119" stroke="#fff" stroke-width="6"/>
  <path d="M300 75 L276 245 L324 245 Z" fill="#4b4f53"/>
  <circle cx="300" cy="260" r="72" fill="#24282b"/>
  <text x="300" y="278" text-anchor="middle" font-family="Arial, sans-serif" font-size="39" font-weight="700" fill="#fff">RISK</text>
</svg>
